<?xml version="1.0" encoding="utf-8"?>
<svg version="1.1" xmlns:xlink="http://www.w3.org/1999/xlink" width="12px" height="12px" viewBox="145 168.5  12 12" xmlns="http://www.w3.org/2000/svg">
  <path d="M 151 168.5  C 154.36 168.5  157 171.14  157 174.5  C 157 177.86  154.36 180.5  151 180.5  C 147.64 180.5  145 177.86  145 174.5  C 145 171.14  147.64 168.5  151 168.5  Z " fill-rule="nonzero" fill="#ffffff" stroke="none" />
  <path d="M 151 169  C 154.08 169  156.5 171.42  156.5 174.5  C 156.5 177.58  154.08 180  151 180  C 147.92 180  145.5 177.58  145.5 174.5  C 145.5 171.42  147.92 169  151 169  Z " stroke-width="1" stroke="#797979" fill="none" />
  <path d="M 151 177.5  C 149.32 177.5  148 176.18  148 174.5  C 148 172.82  149.32 171.5  151 171.5  C 152.68 171.5  154 172.82  154 174.5  C 154 176.18  152.68 177.5  151 177.5  " fill-rule="nonzero" fill="#797979" stroke="none" />
</svg>