<?xml version="1.0" encoding="utf-8"?>
<svg version="1.1" xmlns:xlink="http://www.w3.org/1999/xlink" width="12px" height="12px" viewBox="145 200.5  12 12" xmlns="http://www.w3.org/2000/svg">
  <path d="M 151 200.5  C 154.36 200.5  157 203.14  157 206.5  C 157 209.86  154.36 212.5  151 212.5  C 147.64 212.5  145 209.86  145 206.5  C 145 203.14  147.64 200.5  151 200.5  Z " fill-rule="nonzero" fill="#ffffff" stroke="none" />
  <path d="M 151 201  C 154.08 201  156.5 203.42  156.5 206.5  C 156.5 209.58  154.08 212  151 212  C 147.92 212  145.5 209.58  145.5 206.5  C 145.5 203.42  147.92 201  151 201  Z " stroke-width="1" stroke="#797979" fill="none" />
  <path d="M 151 209.5  C 149.32 209.5  148 208.18  148 206.5  C 148 204.82  149.32 203.5  151 203.5  C 152.68 203.5  154 204.82  154 206.5  C 154 208.18  152.68 209.5  151 209.5  " fill-rule="nonzero" fill="#797979" stroke="none" />
</svg>